<mxfile host="app.diagrams.net" modified="2024-05-14T01:51:53.852Z" agent="Mozilla/5.0 (Windows NT 10.0; Win64; x64) AppleWebKit/537.36 (KHTML, like Gecko) Chrome/124.0.0.0 Safari/537.36" etag="30wiNOe9fxr_Q2zH-a_M" version="23.1.7" type="github">
  <diagram name="第 1 页" id="tpGW7amUJPiZPP-oyc7j">
    <mxGraphModel dx="864" dy="766" grid="1" gridSize="10" guides="1" tooltips="1" connect="1" arrows="1" fold="1" page="1" pageScale="1" pageWidth="827" pageHeight="1169" math="0" shadow="0">
      <root>
        <mxCell id="0" />
        <mxCell id="1" parent="0" />
        <mxCell id="q75ZhzqpQJJ9Fk8gjcbY-6" value="" style="edgeStyle=orthogonalEdgeStyle;rounded=0;orthogonalLoop=1;jettySize=auto;html=1;" edge="1" parent="1" source="q75ZhzqpQJJ9Fk8gjcbY-1" target="q75ZhzqpQJJ9Fk8gjcbY-5">
          <mxGeometry relative="1" as="geometry" />
        </mxCell>
        <mxCell id="q75ZhzqpQJJ9Fk8gjcbY-1" value="业务场景" style="rounded=0;whiteSpace=wrap;html=1;" vertex="1" parent="1">
          <mxGeometry x="354" y="130" width="120" height="60" as="geometry" />
        </mxCell>
        <mxCell id="q75ZhzqpQJJ9Fk8gjcbY-4" style="edgeStyle=orthogonalEdgeStyle;rounded=0;orthogonalLoop=1;jettySize=auto;html=1;exitX=0.5;exitY=1;exitDx=0;exitDy=0;entryX=0.5;entryY=0;entryDx=0;entryDy=0;" edge="1" parent="1" source="q75ZhzqpQJJ9Fk8gjcbY-3" target="q75ZhzqpQJJ9Fk8gjcbY-1">
          <mxGeometry relative="1" as="geometry" />
        </mxCell>
        <mxCell id="q75ZhzqpQJJ9Fk8gjcbY-3" value="开始" style="ellipse;whiteSpace=wrap;html=1;" vertex="1" parent="1">
          <mxGeometry x="354" y="10" width="120" height="80" as="geometry" />
        </mxCell>
        <mxCell id="q75ZhzqpQJJ9Fk8gjcbY-12" value="" style="edgeStyle=orthogonalEdgeStyle;rounded=0;orthogonalLoop=1;jettySize=auto;html=1;entryX=0.5;entryY=0;entryDx=0;entryDy=0;" edge="1" parent="1" source="q75ZhzqpQJJ9Fk8gjcbY-5" target="q75ZhzqpQJJ9Fk8gjcbY-31">
          <mxGeometry relative="1" as="geometry">
            <mxPoint x="414" y="340" as="targetPoint" />
          </mxGeometry>
        </mxCell>
        <mxCell id="q75ZhzqpQJJ9Fk8gjcbY-5" value="生成消息" style="rounded=0;whiteSpace=wrap;html=1;" vertex="1" parent="1">
          <mxGeometry x="354" y="220" width="120" height="60" as="geometry" />
        </mxCell>
        <mxCell id="q75ZhzqpQJJ9Fk8gjcbY-18" value="" style="edgeStyle=orthogonalEdgeStyle;rounded=0;orthogonalLoop=1;jettySize=auto;html=1;" edge="1" parent="1" source="q75ZhzqpQJJ9Fk8gjcbY-15" target="q75ZhzqpQJJ9Fk8gjcbY-17">
          <mxGeometry relative="1" as="geometry" />
        </mxCell>
        <mxCell id="q75ZhzqpQJJ9Fk8gjcbY-19" value="是" style="edgeLabel;html=1;align=center;verticalAlign=middle;resizable=0;points=[];" vertex="1" connectable="0" parent="q75ZhzqpQJJ9Fk8gjcbY-18">
          <mxGeometry x="-0.0367" y="-4" relative="1" as="geometry">
            <mxPoint as="offset" />
          </mxGeometry>
        </mxCell>
        <mxCell id="q75ZhzqpQJJ9Fk8gjcbY-21" value="" style="edgeStyle=orthogonalEdgeStyle;rounded=0;orthogonalLoop=1;jettySize=auto;html=1;" edge="1" parent="1" source="q75ZhzqpQJJ9Fk8gjcbY-15" target="q75ZhzqpQJJ9Fk8gjcbY-20">
          <mxGeometry relative="1" as="geometry" />
        </mxCell>
        <mxCell id="q75ZhzqpQJJ9Fk8gjcbY-22" value="否" style="edgeLabel;html=1;align=center;verticalAlign=middle;resizable=0;points=[];" vertex="1" connectable="0" parent="q75ZhzqpQJJ9Fk8gjcbY-21">
          <mxGeometry x="-0.0449" y="1" relative="1" as="geometry">
            <mxPoint as="offset" />
          </mxGeometry>
        </mxCell>
        <mxCell id="q75ZhzqpQJJ9Fk8gjcbY-15" value="是否被用户确认" style="rhombus;whiteSpace=wrap;html=1;rounded=0;" vertex="1" parent="1">
          <mxGeometry x="335" y="800" width="156" height="80" as="geometry" />
        </mxCell>
        <mxCell id="q75ZhzqpQJJ9Fk8gjcbY-29" style="edgeStyle=orthogonalEdgeStyle;rounded=0;orthogonalLoop=1;jettySize=auto;html=1;exitX=0.5;exitY=1;exitDx=0;exitDy=0;entryX=0;entryY=0.5;entryDx=0;entryDy=0;" edge="1" parent="1" source="q75ZhzqpQJJ9Fk8gjcbY-17" target="q75ZhzqpQJJ9Fk8gjcbY-28">
          <mxGeometry relative="1" as="geometry" />
        </mxCell>
        <mxCell id="q75ZhzqpQJJ9Fk8gjcbY-17" value="修改消息推送记录的状态" style="whiteSpace=wrap;html=1;rounded=0;" vertex="1" parent="1">
          <mxGeometry x="209" y="890" width="120" height="60" as="geometry" />
        </mxCell>
        <mxCell id="q75ZhzqpQJJ9Fk8gjcbY-30" style="edgeStyle=orthogonalEdgeStyle;rounded=0;orthogonalLoop=1;jettySize=auto;html=1;exitX=0.5;exitY=1;exitDx=0;exitDy=0;entryX=1;entryY=0.5;entryDx=0;entryDy=0;" edge="1" parent="1" source="q75ZhzqpQJJ9Fk8gjcbY-20" target="q75ZhzqpQJJ9Fk8gjcbY-28">
          <mxGeometry relative="1" as="geometry" />
        </mxCell>
        <mxCell id="q75ZhzqpQJJ9Fk8gjcbY-20" value="设置定时器，定时轮询推送websocket&lt;br&gt;？" style="whiteSpace=wrap;html=1;rounded=0;" vertex="1" parent="1">
          <mxGeometry x="499" y="890" width="120" height="60" as="geometry" />
        </mxCell>
        <mxCell id="q75ZhzqpQJJ9Fk8gjcbY-28" value="结束" style="ellipse;whiteSpace=wrap;html=1;" vertex="1" parent="1">
          <mxGeometry x="353" y="970" width="120" height="80" as="geometry" />
        </mxCell>
        <mxCell id="q75ZhzqpQJJ9Fk8gjcbY-37" style="edgeStyle=orthogonalEdgeStyle;rounded=0;orthogonalLoop=1;jettySize=auto;html=1;exitX=0.5;exitY=1;exitDx=0;exitDy=0;entryX=0.5;entryY=0;entryDx=0;entryDy=0;" edge="1" parent="1" source="q75ZhzqpQJJ9Fk8gjcbY-31" target="q75ZhzqpQJJ9Fk8gjcbY-36">
          <mxGeometry relative="1" as="geometry" />
        </mxCell>
        <mxCell id="q75ZhzqpQJJ9Fk8gjcbY-31" value="消息处理" style="rounded=0;whiteSpace=wrap;html=1;" vertex="1" parent="1">
          <mxGeometry x="354" y="320" width="120" height="60" as="geometry" />
        </mxCell>
        <mxCell id="q75ZhzqpQJJ9Fk8gjcbY-43" style="edgeStyle=orthogonalEdgeStyle;rounded=0;orthogonalLoop=1;jettySize=auto;html=1;exitX=0.5;exitY=1;exitDx=0;exitDy=0;entryX=0.5;entryY=0;entryDx=0;entryDy=0;" edge="1" parent="1" source="q75ZhzqpQJJ9Fk8gjcbY-35" target="q75ZhzqpQJJ9Fk8gjcbY-39">
          <mxGeometry relative="1" as="geometry" />
        </mxCell>
        <mxCell id="q75ZhzqpQJJ9Fk8gjcbY-35" value="发起rabbitmq推送" style="rounded=0;whiteSpace=wrap;html=1;" vertex="1" parent="1">
          <mxGeometry x="354" y="480" width="120" height="60" as="geometry" />
        </mxCell>
        <mxCell id="q75ZhzqpQJJ9Fk8gjcbY-38" style="edgeStyle=orthogonalEdgeStyle;rounded=0;orthogonalLoop=1;jettySize=auto;html=1;exitX=0.5;exitY=1;exitDx=0;exitDy=0;entryX=0.5;entryY=0;entryDx=0;entryDy=0;" edge="1" parent="1" source="q75ZhzqpQJJ9Fk8gjcbY-36" target="q75ZhzqpQJJ9Fk8gjcbY-35">
          <mxGeometry relative="1" as="geometry" />
        </mxCell>
        <mxCell id="q75ZhzqpQJJ9Fk8gjcbY-36" value="创建事件，消息发送记录新增" style="rounded=0;whiteSpace=wrap;html=1;" vertex="1" parent="1">
          <mxGeometry x="354" y="400" width="120" height="60" as="geometry" />
        </mxCell>
        <mxCell id="q75ZhzqpQJJ9Fk8gjcbY-42" value="" style="edgeStyle=orthogonalEdgeStyle;rounded=0;orthogonalLoop=1;jettySize=auto;html=1;" edge="1" parent="1" source="q75ZhzqpQJJ9Fk8gjcbY-39" target="q75ZhzqpQJJ9Fk8gjcbY-41">
          <mxGeometry relative="1" as="geometry" />
        </mxCell>
        <mxCell id="q75ZhzqpQJJ9Fk8gjcbY-45" style="edgeStyle=orthogonalEdgeStyle;rounded=0;orthogonalLoop=1;jettySize=auto;html=1;exitX=0.5;exitY=1;exitDx=0;exitDy=0;" edge="1" parent="1" source="q75ZhzqpQJJ9Fk8gjcbY-39" target="q75ZhzqpQJJ9Fk8gjcbY-44">
          <mxGeometry relative="1" as="geometry" />
        </mxCell>
        <mxCell id="q75ZhzqpQJJ9Fk8gjcbY-47" style="edgeStyle=orthogonalEdgeStyle;rounded=0;orthogonalLoop=1;jettySize=auto;html=1;exitX=0.5;exitY=1;exitDx=0;exitDy=0;entryX=0.5;entryY=0;entryDx=0;entryDy=0;" edge="1" parent="1" source="q75ZhzqpQJJ9Fk8gjcbY-39" target="q75ZhzqpQJJ9Fk8gjcbY-46">
          <mxGeometry relative="1" as="geometry" />
        </mxCell>
        <mxCell id="q75ZhzqpQJJ9Fk8gjcbY-39" value="消费者消费消息" style="rounded=0;whiteSpace=wrap;html=1;" vertex="1" parent="1">
          <mxGeometry x="353" y="560" width="120" height="60" as="geometry" />
        </mxCell>
        <mxCell id="q75ZhzqpQJJ9Fk8gjcbY-41" value="消费成功，修改消息发送记录的是否成功消费" style="rounded=0;whiteSpace=wrap;html=1;" vertex="1" parent="1">
          <mxGeometry x="553" y="560" width="120" height="60" as="geometry" />
        </mxCell>
        <mxCell id="q75ZhzqpQJJ9Fk8gjcbY-49" style="edgeStyle=orthogonalEdgeStyle;rounded=0;orthogonalLoop=1;jettySize=auto;html=1;exitX=0.5;exitY=1;exitDx=0;exitDy=0;entryX=0.5;entryY=0;entryDx=0;entryDy=0;" edge="1" parent="1" source="q75ZhzqpQJJ9Fk8gjcbY-44" target="q75ZhzqpQJJ9Fk8gjcbY-15">
          <mxGeometry relative="1" as="geometry" />
        </mxCell>
        <mxCell id="q75ZhzqpQJJ9Fk8gjcbY-44" value="websocket推送&lt;br&gt;页面提示" style="rounded=0;whiteSpace=wrap;html=1;" vertex="1" parent="1">
          <mxGeometry x="234" y="680" width="120" height="60" as="geometry" />
        </mxCell>
        <mxCell id="q75ZhzqpQJJ9Fk8gjcbY-51" style="edgeStyle=orthogonalEdgeStyle;rounded=0;orthogonalLoop=1;jettySize=auto;html=1;exitX=0.5;exitY=1;exitDx=0;exitDy=0;entryX=0.5;entryY=0;entryDx=0;entryDy=0;" edge="1" parent="1" source="q75ZhzqpQJJ9Fk8gjcbY-46" target="q75ZhzqpQJJ9Fk8gjcbY-15">
          <mxGeometry relative="1" as="geometry" />
        </mxCell>
        <mxCell id="q75ZhzqpQJJ9Fk8gjcbY-46" value="邮箱推送" style="rounded=0;whiteSpace=wrap;html=1;" vertex="1" parent="1">
          <mxGeometry x="474" y="680" width="120" height="60" as="geometry" />
        </mxCell>
      </root>
    </mxGraphModel>
  </diagram>
</mxfile>
